<svg data-v-423bf9ae="" xmlns="http://www.w3.org/2000/svg" viewBox="0 0 254 90" class="iconLeftSlogan"><!----><!----><!----><g data-v-423bf9ae="" id="aa110642-be5b-4de8-9a67-0a9b4a147556" fill="white" transform="matrix(6.38297898243758,0,0,6.38297898243758,79.86700169648327,-23.042554501982146)"><path d="M5.01 13.01L5.01 13.01Q3.82 13.01 2.83 12.44L2.83 12.44L2.83 12.44Q1.85 11.87 1.27 10.82L1.27 10.82L1.27 10.82Q0.69 9.77 0.69 8.37L0.69 8.37L0.69 8.37Q0.69 6.96 1.25 5.88L1.25 5.88L1.25 5.88Q1.81 4.80 2.84 4.21L2.84 4.21L2.84 4.21Q3.88 3.61 5.26 3.61L5.26 3.61L5.26 3.61Q6.47 3.61 7.41 4.10L7.41 4.10L7.41 4.10Q8.34 4.58 8.34 5.59L8.34 5.59L8.34 5.59Q8.36 6.22 7.97 6.66L7.97 6.66L7.97 6.66Q7.57 7.10 6.92 7.10L6.92 7.10L6.92 7.10Q6.66 7.10 6.49 7.01L6.49 7.01L6.49 7.01Q6.31 6.92 6.23 6.79L6.23 6.79L6.23 6.79Q6.15 6.66 6.16 6.59L6.16 6.59L6.16 6.59Q6.16 6.57 6.36 6.44L6.36 6.44L6.36 6.44Q6.55 6.31 6.71 6.09L6.71 6.09L6.71 6.09Q6.86 5.87 6.86 5.54L6.86 5.54L6.86 5.54Q6.86 4.91 6.43 4.54L6.43 4.54L6.43 4.54Q6.01 4.17 5.25 4.17L5.25 4.17L5.25 4.17Q4.40 4.17 3.73 4.66L3.73 4.66L3.73 4.66Q3.07 5.14 2.69 6.07L2.69 6.07L2.69 6.07Q2.32 7.00 2.32 8.29L2.32 8.29L2.32 8.29Q2.32 9.41 2.72 10.33L2.72 10.33L2.72 10.33Q3.12 11.24 3.85 11.78L3.85 11.78L3.85 11.78Q4.58 12.32 5.52 12.32L5.52 12.32L5.52 12.32Q6.27 12.32 6.81 12.01L6.81 12.01L6.81 12.01Q7.35 11.69 7.78 10.99L7.78 10.99L7.78 10.99Q7.85 10.86 7.98 10.86L7.98 10.86L7.98 10.86Q8.09 10.86 8.23 10.95L8.23 10.95L8.23 10.95Q8.46 11.10 8.46 11.26L8.46 11.26L8.46 11.26Q8.46 11.34 8.40 11.40L8.40 11.40L8.40 11.40Q7.87 12.07 7.40 12.41L7.40 12.41L7.40 12.41Q6.93 12.75 6.38 12.88L6.38 12.88L6.38 12.88Q5.84 13.01 5.01 13.01L5.01 13.01ZM9.79 12.77L9.79 12.77Q9.66 12.77 9.60 12.68L9.60 12.68L9.60 12.68Q9.53 12.59 9.53 12.46L9.53 12.46L9.53 12.46Q9.55 12.25 9.62 12.21L9.62 12.21L9.62 12.21Q9.69 12.17 9.88 12.17L9.88 12.17L9.88 12.17Q10.29 12.17 10.49 12.02L10.49 12.02L10.49 12.02Q10.68 11.87 10.73 11.66L10.73 11.66L10.73 11.66Q10.78 11.44 10.79 11.09L10.79 11.09L10.79 5.53L10.79 5.53Q10.78 5.18 10.73 4.96L10.73 4.96L10.73 4.96Q10.68 4.75 10.49 4.60L10.49 4.60L10.49 4.60Q10.29 4.45 9.88 4.45L9.88 4.45L9.80 4.45L9.80 4.45Q9.66 4.45 9.60 4.40L9.60 4.40L9.60 4.40Q9.55 4.35 9.53 4.16L9.53 4.16L9.53 4.16Q9.53 4.03 9.60 3.94L9.60 3.94L9.60 3.94Q9.66 3.85 9.79 3.85L9.79 3.85L9.79 3.85Q10.70 3.89 11.44 3.89L11.44 3.89L13.41 3.89L13.41 3.89Q14.18 3.89 14.66 4.00L14.66 4.00L14.66 4.00Q15.13 4.12 15.51 4.35L15.51 4.35L15.51 4.35Q15.88 4.59 16.09 5.01L16.09 5.01L16.09 5.01Q16.30 5.42 16.30 5.91L16.30 5.91L16.30 5.91Q16.30 6.78 15.73 7.29L15.73 7.29L15.73 7.29Q15.16 7.80 14.41 7.98L14.41 7.98L14.41 8.02L14.41 8.02Q15.13 8.02 15.73 8.31L15.73 8.31L15.73 8.31Q16.32 8.60 16.65 9.08L16.65 9.08L16.65 9.08Q16.98 9.56 16.98 10.12L16.98 10.12L16.98 10.12Q16.98 11.07 16.40 11.66L16.40 11.66L16.40 11.66Q15.82 12.25 14.95 12.50L14.95 12.50L14.95 12.50Q14.07 12.74 13.13 12.74L13.13 12.74L11.45 12.73L11.45 12.73Q10.70 12.73 9.79 12.77L9.79 12.77ZM12.18 7.74L12.77 7.74L12.77 7.74Q13.33 7.74 13.74 7.66L13.74 7.66L13.74 7.66Q14.15 7.57 14.48 7.21L14.48 7.21L14.48 7.21Q14.80 6.85 14.80 6.08L14.80 6.08L14.80 6.08Q14.80 4.41 13.16 4.41L13.16 4.41L12.18 4.41L12.18 7.74ZM13.19 12.18L13.19 12.18Q14.22 12.17 14.85 11.67L14.85 11.67L14.85 11.67Q15.47 11.17 15.47 10.04L15.47 10.04L15.47 10.04Q15.40 9.28 14.76 8.79L14.76 8.79L14.76 8.79Q14.13 8.30 12.75 8.30L12.75 8.30L12.18 8.30L12.18 11.09L12.18 11.09Q12.18 11.56 12.27 11.80L12.27 11.80L12.27 11.80Q12.36 12.03 12.56 12.10L12.56 12.10L12.56 12.10Q12.77 12.18 13.19 12.18L13.19 12.18ZM22.76 13.01L22.76 13.01Q21.43 13.01 20.42 12.37L20.42 12.37L20.42 12.37Q19.40 11.73 18.85 10.68L18.85 10.68L18.85 10.68Q18.30 9.63 18.30 8.43L18.30 8.43L18.30 8.43Q18.30 6.96 18.96 5.87L18.96 5.87L18.96 5.87Q19.63 4.77 20.66 4.19L20.66 4.19L20.66 4.19Q21.70 3.61 22.76 3.61L22.76 3.61L22.76 3.61Q24.11 3.61 25.14 4.25L25.14 4.25L25.14 4.25Q26.17 4.89 26.72 5.93L26.72 5.93L26.72 5.93Q27.27 6.97 27.27 8.18L27.27 8.18L27.27 8.18Q27.27 9.65 26.60 10.75L26.60 10.75L26.60 10.75Q25.93 11.84 24.88 12.43L24.88 12.43L24.88 12.43Q23.83 13.01 22.76 13.01L22.76 13.01ZM22.75 12.39L22.75 12.39Q23.70 12.39 24.34 11.82L24.34 11.82L24.34 11.82Q24.98 11.26 25.29 10.30L25.29 10.30L25.29 10.30Q25.61 9.34 25.61 8.18L25.61 8.18L25.61 8.18Q25.61 7.10 25.28 6.20L25.28 6.20L25.28 6.20Q24.96 5.29 24.32 4.75L24.32 4.75L24.32 4.75Q23.67 4.21 22.75 4.21L22.75 4.21L22.75 4.21Q21.35 4.21 20.64 5.40L20.64 5.40L20.64 5.40Q19.94 6.58 19.94 8.39L19.94 8.39L19.94 8.39Q19.94 9.48 20.25 10.39L20.25 10.39L20.25 10.39Q20.57 11.30 21.20 11.84L21.20 11.84L21.20 11.84Q21.83 12.39 22.75 12.39L22.75 12.39Z"></path></g><!----><g data-v-423bf9ae="" id="48dcc015-bca4-4415-9a8e-1cdefa4996bf" transform="matrix(2.8125,0,0,2.8125,-12.426001459360123,0)" stroke="none" fill="white"><path d="M27.377 11.377L16 0 4.623 11.377 16 22.753l11.377-11.376zM16 6.026l5.35 5.35L16 16.727l-5.35-5.35L16 6.026zM27.426 14.969l-5.664 5.664V32h5.664zM10.238 20.633l-5.664-5.664V32h5.664z"></path></g><!----><g data-v-423bf9ae="" id="8b5800dd-2d30-4220-bdaf-4ec8ac2ae6e3" fill="white" transform="matrix(0.2754605192837191,0,0,0.2754605192837191,84.1280175861736,59.20116463240653)"><path d="M0.52 3.51C0.52 3.75 0.60 3.77 0.77 3.77L1.30 3.77C1.36 3.77 1.36 4.12 1.36 4.55C1.36 5.66 1.34 8.96 1.34 9.42C1.34 11.13 1.60 12.80 4.45 12.80C5.53 12.80 6.69 12.38 7.35 12.00C7.60 11.86 7.90 11.72 7.98 11.72C8.25 11.72 8.51 12.74 8.85 12.74C9.17 12.74 9.18 12.35 9.18 12.25C9.18 11.96 9.24 10.08 9.28 8.16C9.34 6.12 9.32 3.77 9.44 3.77L9.76 3.77C9.98 3.77 10.05 3.75 10.05 3.56C10.05 3.32 10.01 3.26 9.81 3.26C9.67 3.26 9.14 3.30 8.72 3.30C8.30 3.30 7.50 3.26 7.28 3.26C7.10 3.26 7 3.28 7 3.51C7 3.75 7.11 3.77 7.28 3.77L7.98 3.77C8.05 3.77 8.06 4.30 8.06 4.87L8.06 9.14C8.06 11.19 8.06 11.12 7.73 11.34C7.34 11.61 6.52 12.08 5.35 12.08C3.37 12.08 2.58 11.17 2.58 9.41C2.58 8.82 2.65 3.77 2.76 3.77L3.67 3.77C3.89 3.77 3.93 3.75 3.93 3.56C3.93 3.32 3.92 3.26 3.72 3.26C3.40 3.26 2.52 3.30 2.10 3.30C1.68 3.30 0.99 3.26 0.77 3.26C0.59 3.26 0.52 3.28 0.52 3.51ZM18.09 12.39C18.09 12.63 18.10 12.68 18.30 12.68C18.48 12.68 18.86 12.64 19.47 12.64C20.10 12.64 20.66 12.68 20.99 12.68C21.15 12.68 21.15 12.61 21.15 12.40C21.15 12.24 21.15 12.18 20.99 12.18L19.78 12.18C19.74 12.18 19.73 11.54 19.73 10.79C19.73 9.46 19.74 7.48 19.74 5.99C19.74 5.25 19.74 4.84 19.75 4.28C19.75 4.02 19.82 4.14 19.95 4.28L26.84 12.66C26.92 12.75 27.01 12.89 27.12 12.89C27.23 12.89 27.30 12.77 27.30 12.54C27.30 12.39 27.47 6.65 27.48 4.48C27.48 4.06 27.51 3.70 27.54 3.70L28.17 3.70C28.39 3.70 28.45 3.68 28.45 3.49C28.45 3.25 28.45 3.19 28.25 3.19C28.06 3.19 27.62 3.23 27.06 3.23C26.45 3.23 25.65 3.19 25.55 3.19C25.38 3.19 25.38 3.26 25.38 3.47C25.38 3.64 25.38 3.70 25.55 3.70L26.85 3.70C26.87 3.70 26.87 4.33 26.87 4.44C26.87 5.85 26.89 8.33 26.89 9.70L26.89 10.29C26.89 10.57 26.88 10.65 26.66 10.37L20.97 3.39C20.86 3.25 20.83 3.19 20.66 3.19C20.58 3.19 20.20 3.23 19.89 3.23C19.60 3.23 18.52 3.19 18.33 3.19C18.16 3.19 18.13 3.26 18.13 3.47C18.13 3.64 18.16 3.70 18.33 3.70L19.24 3.70C19.24 4.17 19.19 8.53 19.12 10.79C19.10 11.69 19.11 12.18 19.00 12.18L18.35 12.18C18.13 12.18 18.09 12.19 18.09 12.39ZM36.48 12.39C36.48 12.63 36.51 12.68 36.71 12.68C37.03 12.68 38.00 12.64 38.42 12.64C38.84 12.64 43.19 12.68 43.51 12.68C43.78 12.68 43.85 12.66 43.86 12.49C43.92 12.08 44.16 10.72 44.16 10.60C44.16 10.47 44.00 10.44 43.83 10.43C43.74 10.42 43.65 10.46 43.64 10.56L43.47 11.76C43.43 12.05 43.41 12.03 43.19 12.04C43.04 12.05 40.53 12.12 39.10 12.12C39.06 12.12 39.02 11.38 39.02 10.54L39.02 6.66C39.02 5.40 39.03 3.70 39.13 3.70L40.11 3.70C40.35 3.70 40.38 3.63 40.38 3.44C40.38 3.23 40.36 3.19 40.12 3.19C39.80 3.19 38.86 3.23 38.44 3.23C38.02 3.23 37.09 3.19 36.86 3.19C36.64 3.19 36.58 3.22 36.58 3.44C36.58 3.65 36.62 3.70 36.82 3.70L37.65 3.70C37.69 3.70 37.72 4.23 37.72 4.90L37.72 8.13C37.72 10.07 37.69 12.18 37.60 12.18L36.76 12.18C36.54 12.18 36.48 12.21 36.48 12.39ZM51.77 12.39C51.77 12.63 51.80 12.68 52.00 12.68C52.32 12.68 53.28 12.64 53.70 12.64C54.12 12.64 58.63 12.68 58.95 12.68C59.08 12.68 59.23 12.66 59.23 12.49C59.23 12.07 59.28 11.23 59.28 10.53C59.28 10.39 59.12 10.39 59.00 10.39C58.88 10.39 58.76 10.39 58.76 10.51C58.74 11.06 58.74 11.41 58.72 11.76C58.69 12.01 58.69 12.04 58.59 12.04C58.44 12.04 55.80 12.08 54.31 12.08C54.24 12.08 54.19 10.11 54.15 8.26C54.15 8.06 54.19 8.09 54.33 8.09L56.62 8.09C57.32 8.09 57.34 8.20 57.34 8.30L57.34 9.00C57.34 9.14 57.53 9.14 57.64 9.14C57.74 9.14 57.86 9.13 57.86 9.02C57.86 8.83 57.83 8.33 57.83 7.83C57.83 7.32 57.86 6.83 57.86 6.71C57.86 6.59 57.72 6.58 57.62 6.58C57.51 6.58 57.34 6.59 57.34 6.72L57.34 7.45C57.34 7.62 56.90 7.63 56.62 7.63L54.28 7.63C54.17 7.63 54.15 7.63 54.15 7.45C54.14 6.75 54.12 6.06 54.12 5.46C54.12 5.12 54.12 3.71 54.21 3.71C55.44 3.71 57.95 3.75 57.95 3.81C57.95 3.99 57.90 4.83 57.90 4.89C57.90 5.04 57.97 5.10 58.16 5.10C58.35 5.10 58.42 5.08 58.42 4.94C58.42 3.85 58.48 3.36 58.48 3.09C58.48 2.91 58.39 2.90 58.20 2.90C58.00 2.90 58.00 2.95 57.97 3.11C57.96 3.25 58.03 3.25 57.12 3.25C56.50 3.25 54.36 3.29 53.59 3.29C53.10 3.29 52.16 3.25 52.07 3.25C51.94 3.25 51.88 3.30 51.88 3.49C51.88 3.72 51.95 3.74 52.12 3.74L52.78 3.74C52.84 3.74 52.91 4.79 52.91 5.71C52.91 5.80 52.96 8.27 52.96 9.83L52.96 11.17C52.96 11.84 52.93 12.18 52.91 12.18L52.05 12.18C51.83 12.18 51.77 12.21 51.77 12.39ZM67.10 12.39C67.10 12.63 67.10 12.68 67.30 12.68C67.47 12.68 67.79 12.64 68.36 12.64C68.98 12.64 69.52 12.68 69.68 12.68C69.85 12.68 69.85 12.61 69.85 12.40C69.85 12.24 69.85 12.18 69.68 12.18L68.60 12.18C68.60 12.18 68.59 12.18 68.59 12.17C68.60 11.87 69.37 9.90 69.72 9.02C69.79 8.83 69.80 8.79 70.01 8.79L72.84 8.79C72.98 8.79 72.98 8.81 73.05 9.03C73.32 9.77 74.03 11.89 74.03 12.17C74.03 12.18 74.02 12.18 74.02 12.18L73.25 12.18C73.02 12.18 73.01 12.19 73.01 12.39C73.01 12.63 73.02 12.68 73.19 12.68C73.51 12.68 74.38 12.64 74.80 12.64C75.22 12.64 75.89 12.68 76.10 12.68C76.24 12.68 76.26 12.61 76.26 12.40C76.26 12.24 76.24 12.18 76.10 12.18L75.61 12.18C75.52 12.18 74.49 9.34 73.93 7.78L72.25 3.07C72.24 3.00 72.17 2.94 72.09 2.94C71.96 2.94 71.86 3.16 71.78 3.35C71.62 3.71 71.39 3.84 71.27 4.13L69.79 7.57C69.61 8.01 67.90 12.18 67.77 12.18L67.35 12.18C67.13 12.18 67.10 12.19 67.10 12.39ZM70 8.33C70 8.30 70.03 8.23 70.07 8.13L71.44 4.77C71.48 4.66 71.51 4.61 71.54 4.61C71.55 4.61 71.57 4.63 71.61 4.77L72.77 8.18C72.80 8.25 72.81 8.29 72.81 8.32C72.81 8.36 72.79 8.37 72.69 8.37L70.18 8.37C70 8.37 70 8.34 70 8.33ZM84.22 5.77C84.22 9.07 89.21 8.20 89.21 10.65C89.21 11.59 88.37 12.31 87.39 12.31C86.56 12.31 84.97 11.83 84.94 11.47L84.85 10.15C84.84 9.97 84.77 9.91 84.59 9.91L84.52 9.91C84.31 9.91 84.31 10.00 84.31 10.12C84.31 10.32 84.42 11.66 84.45 12.17C84.46 12.38 85.72 12.85 87.26 12.85C88.83 12.85 90.44 11.87 90.44 10.11C90.44 6.79 85.47 7.87 85.47 5.32C85.47 4.31 86.25 3.56 87.29 3.56C88.31 3.56 89.40 4.58 89.40 4.89C89.40 5.01 89.36 5.73 89.36 5.78C89.36 5.92 89.40 5.99 89.67 5.99C89.91 5.99 89.92 5.94 89.92 5.75C89.92 5.04 90.01 3.68 90.01 3.53C90.01 3.30 89.96 3.29 89.70 3.29C89.47 3.29 89.46 3.32 89.45 3.53C89.45 3.61 89.43 3.78 89.39 3.78C89.33 3.78 89.25 3.74 89.18 3.68C88.38 3.14 87.77 3.08 87.26 3.08C85.74 3.08 84.22 4.17 84.22 5.77ZM98.41 12.39C98.41 12.63 98.41 12.68 98.60 12.68C98.92 12.68 99.86 12.64 100.28 12.64C100.70 12.64 101.53 12.68 101.85 12.68C102.02 12.68 102.02 12.61 102.02 12.40C102.02 12.24 102.02 12.18 101.85 12.18L100.93 12.18C100.84 12.18 100.80 9.93 100.80 8.20C100.80 8.01 100.80 8.01 100.93 8.01L106.16 8.01C106.23 8.01 106.25 8.01 106.25 8.18L106.25 9.91C106.25 11.05 106.23 12.18 106.18 12.18L105.41 12.18C105.18 12.18 105.14 12.19 105.14 12.39C105.14 12.63 105.15 12.68 105.35 12.68C105.67 12.68 106.51 12.64 106.93 12.64C107.35 12.64 107.94 12.68 108.26 12.68C108.43 12.68 108.44 12.61 108.44 12.40C108.44 12.24 108.43 12.18 108.26 12.18L107.52 12.18C107.48 12.18 107.46 9.27 107.46 7.04C107.46 5.40 107.46 3.70 107.51 3.70L108.12 3.70C108.35 3.70 108.39 3.68 108.39 3.49C108.39 3.25 108.37 3.19 108.18 3.19C108.04 3.19 107.41 3.23 106.82 3.23C106.15 3.23 105.55 3.19 105.32 3.19C105.13 3.19 105.10 3.22 105.10 3.44C105.10 3.67 105.17 3.70 105.34 3.70L106.13 3.70C106.19 3.70 106.25 4.79 106.25 5.71L106.25 7.42C106.25 7.59 106.25 7.59 106.08 7.59L100.97 7.59C100.80 7.59 100.80 7.59 100.80 7.38C100.80 6.96 100.79 6.23 100.79 5.53C100.79 4.66 100.80 3.70 100.86 3.70L101.63 3.70C101.85 3.70 101.89 3.68 101.89 3.49C101.89 3.25 101.88 3.19 101.68 3.19C101.36 3.19 100.77 3.23 100.17 3.23C99.58 3.23 99.09 3.19 98.87 3.19C98.69 3.19 98.59 3.21 98.59 3.44C98.59 3.68 98.70 3.70 98.87 3.70L99.48 3.70C99.54 3.70 99.55 5.59 99.55 7.18L99.55 8.61C99.55 10.08 99.54 12.18 99.47 12.18L98.66 12.18C98.43 12.18 98.41 12.19 98.41 12.39ZM116.34 12.39C116.34 12.63 116.38 12.68 116.58 12.68C116.90 12.68 117.66 12.64 118.37 12.64C119.03 12.64 119.83 12.68 120.05 12.68C120.22 12.68 120.25 12.61 120.25 12.40C120.25 12.24 120.22 12.18 120.05 12.18L119.08 12.18C118.99 12.18 118.96 9.55 118.96 7.76L118.96 5.87C118.96 5.14 118.99 3.70 119.08 3.70L119.99 3.70C120.22 3.70 120.25 3.68 120.25 3.49C120.25 3.25 120.22 3.19 120.05 3.19C119.73 3.19 119.06 3.23 118.40 3.23C117.59 3.23 116.87 3.19 116.65 3.19C116.47 3.19 116.40 3.21 116.40 3.44C116.40 3.68 116.48 3.70 116.65 3.70L117.57 3.70C117.61 3.70 117.68 4.79 117.68 5.71L117.68 7.08C117.68 8.92 117.67 12.18 117.56 12.18L116.63 12.18C116.41 12.18 116.34 12.19 116.34 12.39ZM128.14 12.39C128.14 12.63 128.16 12.68 128.35 12.68C128.53 12.68 128.91 12.64 129.53 12.64C130.16 12.64 130.72 12.68 131.04 12.68C131.21 12.68 131.21 12.61 131.21 12.40C131.21 12.24 131.21 12.18 131.04 12.18L129.84 12.18C129.79 12.18 129.78 11.54 129.78 10.79C129.78 9.46 129.79 7.48 129.79 5.99C129.79 5.25 129.79 4.84 129.81 4.28C129.81 4.02 129.88 4.14 130.00 4.28L136.89 12.66C136.98 12.75 137.06 12.89 137.17 12.89C137.28 12.89 137.35 12.77 137.35 12.54C137.35 12.39 137.52 6.65 137.54 4.48C137.54 4.06 137.56 3.70 137.59 3.70L138.22 3.70C138.45 3.70 138.50 3.68 138.50 3.49C138.50 3.25 138.50 3.19 138.31 3.19C138.11 3.19 137.68 3.23 137.12 3.23C136.50 3.23 135.70 3.19 135.60 3.19C135.44 3.19 135.44 3.26 135.44 3.47C135.44 3.64 135.44 3.70 135.60 3.70L136.91 3.70C136.92 3.70 136.92 4.33 136.92 4.44C136.92 5.85 136.95 8.33 136.95 9.70L136.95 10.29C136.95 10.57 136.93 10.65 136.71 10.37L131.03 3.39C130.91 3.25 130.89 3.19 130.72 3.19C130.63 3.19 130.26 3.23 129.95 3.23C129.65 3.23 128.58 3.19 128.38 3.19C128.21 3.19 128.18 3.26 128.18 3.47C128.18 3.64 128.21 3.70 128.38 3.70L129.29 3.70C129.29 4.17 129.25 8.53 129.18 10.79C129.15 11.69 129.16 12.18 129.05 12.18L128.41 12.18C128.18 12.18 128.14 12.19 128.14 12.39ZM146.61 7.91C146.61 11.40 148.97 12.89 151.56 12.89C153.45 12.89 155.46 11.89 155.46 11.58C155.46 11.12 155.47 10.68 155.47 10.33C155.47 9.81 155.48 9.56 155.61 9.56L156.04 9.56C156.18 9.56 156.20 9.39 156.20 9.30C156.20 9.18 156.18 9.06 156.04 9.06C155.82 9.06 155.46 9.10 154.78 9.10C154.34 9.10 153.59 9.07 152.91 9.06C152.77 9.06 152.77 9.24 152.77 9.35C152.77 9.45 152.80 9.56 152.92 9.56L154.14 9.56C154.18 9.56 154.24 9.87 154.24 10.33C154.24 10.82 154.22 11.41 154.20 11.65C154.18 11.76 153.54 12.39 151.96 12.39C149.72 12.39 148.12 10.29 148.12 7.94C148.12 5.42 149.67 3.54 151.68 3.54C153.57 3.54 154.74 4.87 154.74 5.03C154.74 5.15 154.69 6.12 154.69 6.17C154.69 6.31 154.73 6.36 154.99 6.36C155.19 6.36 155.26 6.33 155.26 6.15C155.26 5.43 155.30 3.75 155.30 3.56C155.30 3.36 155.20 3.33 154.99 3.33C154.77 3.33 154.74 3.39 154.74 3.56L154.74 3.91C154.74 3.99 154.70 4.02 154.57 3.92C154.29 3.72 153.30 3.08 151.73 3.08C148.89 3.08 146.61 4.79 146.61 7.91ZM173.77 5.01C173.77 5.17 173.95 5.17 174.08 5.17C174.23 5.17 174.27 5.15 174.29 4.97L174.40 3.89C174.41 3.81 174.96 3.75 175.71 3.75L177.70 3.75C177.76 3.75 177.79 4.35 177.79 4.97C177.79 6.43 177.73 12.18 177.60 12.18L176.74 12.18C176.51 12.18 176.47 12.19 176.47 12.39C176.47 12.63 176.48 12.68 176.68 12.68C177.00 12.68 177.98 12.64 178.40 12.64C178.82 12.64 179.76 12.68 180.08 12.68C180.25 12.68 180.28 12.61 180.28 12.40C180.28 12.24 180.25 12.18 180.08 12.18L179.09 12.18C179.06 12.18 179.06 11.76 179.06 11.31C179.06 9.56 179.14 5.96 179.14 5.92C179.16 5.18 179.16 3.75 179.26 3.75L180.87 3.75C181.58 3.75 182.41 3.78 182.41 3.85C182.41 3.99 182.36 4.90 182.36 4.97C182.36 5.12 182.43 5.17 182.62 5.17C182.81 5.17 182.88 5.17 182.88 5.03C182.88 3.93 182.94 3.40 182.94 3.14C182.94 2.94 182.85 2.94 182.66 2.94C182.50 2.94 182.45 2.98 182.43 3.16C182.43 3.23 181.79 3.28 180.95 3.28L175.95 3.28C175.29 3.28 174.48 3.28 174.48 3.21L174.48 3.07C174.48 2.94 174.36 2.94 174.26 2.94C174.03 2.94 174.01 3.00 173.99 3.19C173.94 3.89 173.77 4.97 173.77 5.01ZM190.69 12.39C190.69 12.63 190.69 12.68 190.89 12.68C191.21 12.68 192.15 12.64 192.57 12.64C192.99 12.64 193.82 12.68 194.14 12.68C194.31 12.68 194.31 12.61 194.31 12.40C194.31 12.24 194.31 12.18 194.14 12.18L193.21 12.18C193.13 12.18 193.09 9.93 193.09 8.20C193.09 8.01 193.09 8.01 193.21 8.01L198.45 8.01C198.52 8.01 198.53 8.01 198.53 8.18L198.53 9.91C198.53 11.05 198.52 12.18 198.46 12.18L197.69 12.18C197.47 12.18 197.43 12.19 197.43 12.39C197.43 12.63 197.44 12.68 197.64 12.68C197.96 12.68 198.80 12.64 199.22 12.64C199.64 12.64 200.23 12.68 200.55 12.68C200.72 12.68 200.73 12.61 200.73 12.40C200.73 12.24 200.72 12.18 200.55 12.18L199.81 12.18C199.77 12.18 199.75 9.27 199.75 7.04C199.75 5.40 199.75 3.70 199.79 3.70L200.41 3.70C200.63 3.70 200.68 3.68 200.68 3.49C200.68 3.25 200.66 3.19 200.47 3.19C200.33 3.19 199.70 3.23 199.11 3.23C198.44 3.23 197.83 3.19 197.61 3.19C197.41 3.19 197.39 3.22 197.39 3.44C197.39 3.67 197.46 3.70 197.62 3.70L198.42 3.70C198.48 3.70 198.53 4.79 198.53 5.71L198.53 7.42C198.53 7.59 198.53 7.59 198.37 7.59L193.26 7.59C193.09 7.59 193.09 7.59 193.09 7.38C193.09 6.96 193.07 6.23 193.07 5.53C193.07 4.66 193.09 3.70 193.14 3.70L193.91 3.70C194.14 3.70 194.18 3.68 194.18 3.49C194.18 3.25 194.17 3.19 193.97 3.19C193.65 3.19 193.06 3.23 192.46 3.23C191.87 3.23 191.38 3.19 191.16 3.19C190.97 3.19 190.88 3.21 190.88 3.44C190.88 3.68 190.99 3.70 191.16 3.70L191.77 3.70C191.83 3.70 191.84 5.59 191.84 7.18L191.84 8.61C191.84 10.08 191.83 12.18 191.76 12.18L190.95 12.18C190.72 12.18 190.69 12.19 190.69 12.39ZM208.77 12.39C208.77 12.63 208.80 12.68 208.99 12.68C209.31 12.68 210.28 12.64 210.70 12.64C211.12 12.64 215.63 12.68 215.95 12.68C216.08 12.68 216.23 12.66 216.23 12.49C216.23 12.07 216.27 11.23 216.27 10.53C216.27 10.39 216.12 10.39 215.99 10.39C215.88 10.39 215.75 10.39 215.75 10.51C215.74 11.06 215.74 11.41 215.71 11.76C215.68 12.01 215.68 12.04 215.59 12.04C215.43 12.04 212.80 12.08 211.30 12.08C211.23 12.08 211.19 10.11 211.15 8.26C211.15 8.06 211.19 8.09 211.33 8.09L213.61 8.09C214.31 8.09 214.34 8.20 214.34 8.30L214.34 9.00C214.34 9.14 214.52 9.14 214.63 9.14C214.73 9.14 214.86 9.13 214.86 9.02C214.86 8.83 214.83 8.33 214.83 7.83C214.83 7.32 214.86 6.83 214.86 6.71C214.86 6.59 214.72 6.58 214.62 6.58C214.51 6.58 214.34 6.59 214.34 6.72L214.34 7.45C214.34 7.62 213.89 7.63 213.61 7.63L211.27 7.63C211.16 7.63 211.15 7.63 211.15 7.45C211.13 6.75 211.12 6.06 211.12 5.46C211.12 5.12 211.12 3.71 211.20 3.71C212.44 3.71 214.94 3.75 214.94 3.81C214.94 3.99 214.90 4.83 214.90 4.89C214.90 5.04 214.97 5.10 215.15 5.10C215.35 5.10 215.42 5.08 215.42 4.94C215.42 3.85 215.47 3.36 215.47 3.09C215.47 2.91 215.39 2.90 215.19 2.90C215.00 2.90 215.00 2.95 214.97 3.11C214.96 3.25 215.03 3.25 214.12 3.25C213.50 3.25 211.36 3.29 210.59 3.29C210.10 3.29 209.16 3.25 209.06 3.25C208.94 3.25 208.88 3.30 208.88 3.49C208.88 3.72 208.95 3.74 209.12 3.74L209.78 3.74C209.83 3.74 209.90 4.79 209.90 5.71C209.90 5.80 209.96 8.27 209.96 9.83L209.96 11.17C209.96 11.84 209.93 12.18 209.90 12.18L209.05 12.18C208.82 12.18 208.77 12.21 208.77 12.39ZM234.04 3.51C234.04 3.75 234.08 3.79 234.29 3.79L235.21 3.77C235.27 3.77 235.27 4.47 235.27 5.24L235.27 5.96C235.27 7.70 235.26 12.18 235.14 12.18L234.47 12.18C234.25 12.18 234.18 12.19 234.18 12.39C234.18 12.63 234.19 12.68 234.39 12.68C234.51 12.68 235.49 12.64 235.91 12.64C236.33 12.64 237.20 12.68 237.52 12.68C237.69 12.68 237.72 12.61 237.72 12.40C237.72 12.24 237.69 12.18 237.52 12.18L236.53 12.18C236.49 12.18 236.47 10.60 236.47 9.58L236.47 8.65C236.47 8.57 236.47 8.54 236.57 8.54C236.96 8.54 237.29 8.58 237.79 8.58C239.78 8.58 241.18 7.83 241.18 6.01C241.18 4.09 239.69 3.22 237.78 3.22C237.45 3.22 236.36 3.29 235.94 3.29C235.70 3.29 234.51 3.26 234.29 3.26C234.11 3.26 234.04 3.28 234.04 3.51ZM236.49 8.05L236.49 4.40C236.49 4.05 236.50 3.70 236.54 3.68C236.67 3.67 236.84 3.67 236.98 3.67C238.63 3.67 239.89 4.47 239.89 5.80C239.89 7.57 238.56 8.19 236.98 8.19C236.73 8.19 236.49 8.16 236.49 8.05ZM248.86 8.15C248.86 11.17 251.20 12.80 253.46 12.80C256.24 12.80 258.22 10.89 258.22 8.06C258.22 5.33 256.47 3.11 253.67 3.11C251.06 3.11 248.86 5.10 248.86 8.15ZM250.26 7.77C250.26 5.64 251.55 3.58 253.53 3.58C255.77 3.58 256.84 5.81 256.84 7.94C256.84 10.08 255.74 12.32 253.47 12.32C251.48 12.32 250.26 10.28 250.26 7.77ZM265.62 3.51C265.62 3.75 265.73 3.77 265.90 3.77L266.41 3.77C266.49 3.77 268.63 10.99 268.66 11.07C269.01 12.14 269.12 12.99 269.43 12.99C269.65 12.99 269.75 12.67 270.03 12.26C270.19 12.05 270.28 12.01 270.42 11.66L272.41 6.45C272.48 6.29 272.51 6.20 272.54 6.20C272.57 6.20 272.59 6.29 272.64 6.45C273.24 8.51 273.91 11.03 273.92 11.07C274.27 12.14 274.39 12.99 274.69 12.99C274.92 12.99 275.02 12.67 275.30 12.26C275.45 12.05 275.55 12.01 275.69 11.66L278.78 4.06C278.88 3.81 278.88 3.77 279.24 3.77C279.48 3.77 279.54 3.71 279.54 3.53C279.54 3.32 279.50 3.26 279.30 3.26C279.16 3.26 278.85 3.30 278.35 3.30C277.61 3.30 277.10 3.26 276.91 3.26C276.72 3.26 276.63 3.28 276.63 3.51C276.63 3.75 276.74 3.77 276.91 3.77L277.82 3.77C277.89 3.77 277.90 3.81 277.90 3.95C277.90 4.63 276.30 8.72 275.59 10.63C275.45 10.99 275.38 11.17 275.34 11.17C275.28 11.17 275.23 10.99 275.10 10.60C275.02 10.30 274.09 7.18 273.56 5.22C273.52 5.05 273.31 4.17 273.31 3.85C273.31 3.81 273.31 3.79 273.32 3.77L274.20 3.77C274.39 3.77 274.48 3.75 274.48 3.56C274.48 3.32 274.44 3.26 274.25 3.26C273.92 3.26 272.99 3.30 272.57 3.30C272.15 3.30 271.24 3.26 271.01 3.26C270.83 3.26 270.73 3.28 270.73 3.51C270.73 3.75 270.84 3.77 271.01 3.77L271.81 3.77C271.85 3.77 272.03 4.27 272.19 4.83C272.24 5.05 272.29 5.15 272.29 5.25C272.29 5.31 272.29 5.38 272.24 5.49L270.24 10.60C270.14 10.82 270.12 10.95 270.07 10.95C270.03 10.95 270.00 10.84 269.92 10.60C269.84 10.32 268.83 7.27 268.23 5.22C268.18 5.08 267.86 3.96 267.85 3.85C267.86 3.77 267.90 3.77 267.95 3.77L268.65 3.77C268.87 3.77 268.94 3.75 268.94 3.56C268.94 3.32 268.90 3.26 268.70 3.26C268.38 3.26 267.67 3.30 267.25 3.30C266.83 3.30 266.13 3.26 265.90 3.26C265.72 3.26 265.62 3.28 265.62 3.51ZM287.15 12.39C287.15 12.63 287.18 12.68 287.38 12.68C287.70 12.68 288.67 12.64 289.09 12.64C289.51 12.64 294.01 12.68 294.34 12.68C294.46 12.68 294.62 12.66 294.62 12.49C294.62 12.07 294.66 11.23 294.66 10.53C294.66 10.39 294.50 10.39 294.38 10.39C294.27 10.39 294.14 10.39 294.14 10.51C294.13 11.06 294.13 11.41 294.10 11.76C294.07 12.01 294.07 12.04 293.97 12.04C293.82 12.04 291.19 12.08 289.69 12.08C289.62 12.08 289.58 10.11 289.53 8.26C289.53 8.06 289.58 8.09 289.72 8.09L292.00 8.09C292.70 8.09 292.73 8.20 292.73 8.30L292.73 9.00C292.73 9.14 292.91 9.14 293.02 9.14C293.12 9.14 293.24 9.13 293.24 9.02C293.24 8.83 293.22 8.33 293.22 7.83C293.22 7.32 293.24 6.83 293.24 6.71C293.24 6.59 293.10 6.58 293.01 6.58C292.89 6.58 292.73 6.59 292.73 6.72L292.73 7.45C292.73 7.62 292.28 7.63 292.00 7.63L289.66 7.63C289.55 7.63 289.53 7.63 289.53 7.45C289.52 6.75 289.51 6.06 289.51 5.46C289.51 5.12 289.51 3.71 289.59 3.71C290.82 3.71 293.33 3.75 293.33 3.81C293.33 3.99 293.29 4.83 293.29 4.89C293.29 5.04 293.36 5.10 293.54 5.10C293.73 5.10 293.80 5.08 293.80 4.94C293.80 3.85 293.86 3.36 293.86 3.09C293.86 2.91 293.78 2.90 293.58 2.90C293.38 2.90 293.38 2.95 293.36 3.11C293.34 3.25 293.41 3.25 292.50 3.25C291.89 3.25 289.74 3.29 288.97 3.29C288.48 3.29 287.55 3.25 287.45 3.25C287.32 3.25 287.27 3.30 287.27 3.49C287.27 3.72 287.34 3.74 287.50 3.74L288.16 3.74C288.22 3.74 288.29 4.79 288.29 5.71C288.29 5.80 288.34 8.27 288.34 9.83L288.34 11.17C288.34 11.84 288.32 12.18 288.29 12.18L287.43 12.18C287.21 12.18 287.15 12.21 287.15 12.39ZM302.62 3.51C302.62 3.72 302.69 3.79 302.89 3.79L303.70 3.77C303.80 3.77 303.84 6.61 303.84 8.55L303.84 10.42C303.84 11.30 303.83 12.18 303.79 12.18L303.18 12.18C302.96 12.18 302.89 12.19 302.89 12.39C302.89 12.63 302.93 12.68 303.13 12.68C303.25 12.68 304.08 12.64 304.50 12.64C304.92 12.64 305.69 12.68 306.01 12.68C306.18 12.68 306.21 12.61 306.21 12.40C306.21 12.24 306.18 12.18 306.01 12.18L305.20 12.18C305.13 12.18 305.05 9.18 305.05 8.37C305.05 8.30 305.05 8.26 305.16 8.26C305.55 8.26 306.15 8.27 306.45 8.27C308.69 8.32 308.83 10.00 308.83 11.68L308.83 12.49C308.83 12.61 308.88 12.64 308.98 12.64C308.98 12.64 310.42 12.68 310.90 12.68C311.07 12.68 311.12 12.64 311.12 12.53C311.12 12.24 311.07 12.18 310.91 12.18L310.27 12.18C310.17 12.18 310.14 12.14 310.11 11.31C310.03 8.99 308.66 8.34 307.75 8.05C307.61 8.01 307.64 8.01 307.75 7.95C308.34 7.69 309.65 6.94 309.65 5.63C309.65 3.63 307.96 3.21 306.56 3.21C306.24 3.21 304.95 3.29 304.53 3.29C304.11 3.29 303.13 3.26 302.90 3.26C302.72 3.26 302.62 3.28 302.62 3.51ZM305.05 7.80L305.05 4.40C305.05 4.05 305.07 3.68 305.12 3.68C305.33 3.65 305.61 3.65 305.83 3.65C307.13 3.65 308.38 4.47 308.38 5.82C308.38 6.99 307.83 7.57 307.17 7.88C307.13 7.90 307.09 7.90 307.02 7.90C306.54 7.88 305.83 7.88 305.23 7.87C305.06 7.87 305.05 7.85 305.05 7.80ZM328.47 8.15C328.47 11.17 330.81 12.80 333.06 12.80C335.85 12.80 337.82 10.89 337.82 8.06C337.82 5.33 336.07 3.11 333.27 3.11C330.67 3.11 328.47 5.10 328.47 8.15ZM329.87 7.77C329.87 5.64 331.16 3.58 333.13 3.58C335.37 3.58 336.45 5.81 336.45 7.94C336.45 10.08 335.34 12.32 333.07 12.32C331.09 12.32 329.87 10.28 329.87 7.77ZM345.93 3.49C345.93 3.72 346.04 3.74 346.21 3.74L346.82 3.74C346.88 3.74 346.95 4.79 346.95 5.71C346.95 5.80 347.00 8.27 347.00 9.83L347.00 11.17C347.00 11.84 346.99 12.18 346.93 12.18L346.35 12.18C346.12 12.18 346.05 12.19 346.05 12.39C346.05 12.63 346.07 12.68 346.26 12.68C346.47 12.68 347.31 12.64 347.73 12.64C348.15 12.64 349.09 12.68 349.41 12.68C349.58 12.68 349.61 12.61 349.61 12.40C349.61 12.24 349.58 12.18 349.41 12.18L348.28 12.18C348.22 12.18 348.24 10.16 348.19 8.33C348.19 8.08 348.18 8.09 348.38 8.09L350.80 8.09C351.50 8.09 351.53 8.19 351.53 8.30L351.53 9.16C351.53 9.28 351.71 9.28 351.82 9.28C351.92 9.28 352.04 9.28 352.04 9.17C352.04 8.99 352.02 8.33 352.02 7.83C352.02 7.32 352.04 6.82 352.04 6.69C352.04 6.58 351.93 6.58 351.81 6.58C351.64 6.58 351.53 6.58 351.53 6.71L351.53 7.45C351.53 7.62 351.08 7.63 350.80 7.63L348.38 7.63C348.17 7.63 348.19 7.66 348.19 7.45C348.18 7.13 348.17 6.15 348.17 5.26C348.17 4.52 348.18 3.71 348.25 3.71C349.65 3.71 351.83 3.75 352.13 3.79C352.13 3.96 352.09 4.82 352.09 4.89C352.09 5.04 352.16 5.10 352.34 5.10C352.53 5.10 352.60 5.08 352.60 4.94C352.60 3.85 352.66 3.36 352.66 3.09C352.66 2.93 352.58 2.90 352.38 2.90C352.25 2.90 352.18 2.90 352.16 3.11C352.14 3.25 352.21 3.25 351.26 3.25C350.66 3.25 348.38 3.29 347.63 3.29C347.14 3.29 346.21 3.25 346.11 3.25C345.98 3.25 345.93 3.30 345.93 3.49ZM370.64 5.77C370.64 9.07 375.62 8.20 375.62 10.65C375.62 11.59 374.78 12.31 373.80 12.31C372.97 12.31 371.38 11.83 371.35 11.47L371.27 10.15C371.25 9.97 371.18 9.91 371.00 9.91L370.93 9.91C370.72 9.91 370.72 10.00 370.72 10.12C370.72 10.32 370.83 11.66 370.86 12.17C370.87 12.38 372.13 12.85 373.67 12.85C375.24 12.85 376.85 11.87 376.85 10.11C376.85 6.79 371.88 7.87 371.88 5.32C371.88 4.31 372.67 3.56 373.70 3.56C374.72 3.56 375.82 4.58 375.82 4.89C375.82 5.01 375.77 5.73 375.77 5.78C375.77 5.92 375.82 5.99 376.08 5.99C376.32 5.99 376.33 5.94 376.33 5.75C376.33 5.04 376.42 3.68 376.42 3.53C376.42 3.30 376.38 3.29 376.11 3.29C375.89 3.29 375.87 3.32 375.86 3.53C375.86 3.61 375.84 3.78 375.80 3.78C375.75 3.78 375.66 3.74 375.59 3.68C374.79 3.14 374.18 3.08 373.67 3.08C372.15 3.08 370.64 4.17 370.64 5.77ZM384.75 8.15C384.75 11.17 387.09 12.80 389.34 12.80C392.13 12.80 394.10 10.89 394.10 8.06C394.10 5.33 392.35 3.11 389.55 3.11C386.95 3.11 384.75 5.10 384.75 8.15ZM386.15 7.77C386.15 5.64 387.44 3.58 389.41 3.58C391.65 3.58 392.73 5.81 392.73 7.94C392.73 10.08 391.62 12.32 389.35 12.32C387.37 12.32 386.15 10.28 386.15 7.77ZM402.21 3.49C402.21 3.72 402.32 3.74 402.49 3.74L403.10 3.74C403.16 3.74 403.23 4.79 403.23 5.71C403.23 5.80 403.28 8.27 403.28 9.83L403.28 11.17C403.28 11.84 403.27 12.18 403.21 12.18L402.63 12.18C402.40 12.18 402.33 12.19 402.33 12.39C402.33 12.63 402.35 12.68 402.54 12.68C402.75 12.68 403.59 12.64 404.01 12.64C404.43 12.64 405.37 12.68 405.69 12.68C405.86 12.68 405.89 12.61 405.89 12.40C405.89 12.24 405.86 12.18 405.69 12.18L404.56 12.18C404.50 12.18 404.52 10.16 404.47 8.33C404.47 8.08 404.46 8.09 404.66 8.09L407.08 8.09C407.78 8.09 407.81 8.19 407.81 8.30L407.81 9.16C407.81 9.28 407.99 9.28 408.10 9.28C408.20 9.28 408.32 9.28 408.32 9.17C408.32 8.99 408.30 8.33 408.30 7.83C408.30 7.32 408.32 6.82 408.32 6.69C408.32 6.58 408.21 6.58 408.09 6.58C407.92 6.58 407.81 6.58 407.81 6.71L407.81 7.45C407.81 7.62 407.36 7.63 407.08 7.63L404.66 7.63C404.45 7.63 404.47 7.66 404.47 7.45C404.46 7.13 404.45 6.15 404.45 5.26C404.45 4.52 404.46 3.71 404.53 3.71C405.93 3.71 408.11 3.75 408.41 3.79C408.41 3.96 408.37 4.82 408.37 4.89C408.37 5.04 408.44 5.10 408.62 5.10C408.81 5.10 408.88 5.08 408.88 4.94C408.88 3.85 408.94 3.36 408.94 3.09C408.94 2.93 408.86 2.90 408.66 2.90C408.53 2.90 408.46 2.90 408.44 3.11C408.42 3.25 408.49 3.25 407.54 3.25C406.94 3.25 404.66 3.29 403.91 3.29C403.42 3.29 402.49 3.25 402.39 3.25C402.26 3.25 402.21 3.30 402.21 3.49ZM416.64 5.01C416.64 5.17 416.82 5.17 416.95 5.17C417.10 5.17 417.14 5.15 417.16 4.97L417.27 3.89C417.28 3.81 417.83 3.75 418.59 3.75L420.57 3.75C420.63 3.75 420.66 4.35 420.66 4.97C420.66 6.43 420.60 12.18 420.48 12.18L419.61 12.18C419.38 12.18 419.34 12.19 419.34 12.39C419.34 12.63 419.36 12.68 419.55 12.68C419.87 12.68 420.85 12.64 421.27 12.64C421.69 12.64 422.63 12.68 422.95 12.68C423.12 12.68 423.15 12.61 423.15 12.40C423.15 12.24 423.12 12.18 422.95 12.18L421.96 12.18C421.93 12.18 421.93 11.76 421.93 11.31C421.93 9.56 422.02 5.96 422.02 5.92C422.03 5.18 422.03 3.75 422.13 3.75L423.74 3.75C424.45 3.75 425.28 3.78 425.28 3.85C425.28 3.99 425.24 4.90 425.24 4.97C425.24 5.12 425.31 5.17 425.49 5.17C425.68 5.17 425.75 5.17 425.75 5.03C425.75 3.93 425.81 3.40 425.81 3.14C425.81 2.94 425.73 2.94 425.53 2.94C425.38 2.94 425.32 2.98 425.31 3.16C425.31 3.23 424.66 3.28 423.82 3.28L418.82 3.28C418.17 3.28 417.35 3.28 417.35 3.21L417.35 3.07C417.35 2.94 417.23 2.94 417.13 2.94C416.91 2.94 416.88 3.00 416.86 3.19C416.81 3.89 416.64 4.97 416.64 5.01ZM433.15 3.51C433.15 3.75 433.26 3.77 433.43 3.77L433.93 3.77C434.01 3.77 436.16 10.99 436.18 11.07C436.53 12.14 436.65 12.99 436.95 12.99C437.18 12.99 437.28 12.67 437.56 12.26C437.71 12.05 437.81 12.01 437.95 11.66L439.94 6.45C440.01 6.29 440.03 6.20 440.06 6.20C440.09 6.20 440.12 6.29 440.16 6.45C440.76 8.51 441.43 11.03 441.45 11.07C441.80 12.14 441.91 12.99 442.22 12.99C442.44 12.99 442.54 12.67 442.82 12.26C442.97 12.05 443.07 12.01 443.21 11.66L446.31 4.06C446.40 3.81 446.40 3.77 446.77 3.77C447.01 3.77 447.06 3.71 447.06 3.53C447.06 3.32 447.02 3.26 446.82 3.26C446.68 3.26 446.38 3.30 445.87 3.30C445.13 3.30 444.63 3.26 444.43 3.26C444.25 3.26 444.15 3.28 444.15 3.51C444.15 3.75 444.26 3.77 444.43 3.77L445.34 3.77C445.41 3.77 445.42 3.81 445.42 3.95C445.42 4.63 443.83 8.72 443.11 10.63C442.97 10.99 442.90 11.17 442.86 11.17C442.81 11.17 442.75 10.99 442.62 10.60C442.54 10.30 441.62 7.18 441.08 5.22C441.04 5.05 440.83 4.17 440.83 3.85C440.83 3.81 440.83 3.79 440.85 3.77L441.73 3.77C441.91 3.77 442.01 3.75 442.01 3.56C442.01 3.32 441.97 3.26 441.77 3.26C441.45 3.26 440.51 3.30 440.09 3.30C439.67 3.30 438.76 3.26 438.54 3.26C438.35 3.26 438.26 3.28 438.26 3.51C438.26 3.75 438.37 3.77 438.54 3.77L439.33 3.77C439.38 3.77 439.56 4.27 439.71 4.83C439.77 5.05 439.81 5.15 439.81 5.25C439.81 5.31 439.81 5.38 439.77 5.49L437.77 10.60C437.67 10.82 437.64 10.95 437.60 10.95C437.56 10.95 437.53 10.84 437.44 10.60C437.36 10.32 436.35 7.27 435.75 5.22C435.71 5.08 435.39 3.96 435.37 3.85C435.39 3.77 435.43 3.77 435.47 3.77L436.17 3.77C436.39 3.77 436.46 3.75 436.46 3.56C436.46 3.32 436.42 3.26 436.23 3.26C435.90 3.26 435.19 3.30 434.77 3.30C434.35 3.30 433.65 3.26 433.43 3.26C433.24 3.26 433.15 3.28 433.15 3.51ZM452.86 12.39C452.86 12.63 452.86 12.68 453.05 12.68C453.22 12.68 453.54 12.64 454.12 12.64C454.73 12.64 455.28 12.68 455.43 12.68C455.60 12.68 455.60 12.61 455.60 12.40C455.60 12.24 455.60 12.18 455.43 12.18L454.36 12.18C454.36 12.18 454.34 12.18 454.34 12.17C454.36 11.87 455.13 9.90 455.48 9.02C455.55 8.83 455.56 8.79 455.77 8.79L458.60 8.79C458.74 8.79 458.74 8.81 458.81 9.03C459.07 9.77 459.79 11.89 459.79 12.17C459.79 12.18 459.77 12.18 459.77 12.18L459.00 12.18C458.78 12.18 458.77 12.19 458.77 12.39C458.77 12.63 458.78 12.68 458.95 12.68C459.27 12.68 460.14 12.64 460.56 12.64C460.98 12.64 461.65 12.68 461.86 12.68C462.00 12.68 462.01 12.61 462.01 12.40C462.01 12.24 462.00 12.18 461.86 12.18L461.37 12.18C461.27 12.18 460.25 9.34 459.69 7.78L458.01 3.07C458.00 3.00 457.93 2.94 457.84 2.94C457.72 2.94 457.62 3.16 457.53 3.35C457.38 3.71 457.14 3.84 457.03 4.13L455.55 7.57C455.36 8.01 453.66 12.18 453.53 12.18L453.11 12.18C452.89 12.18 452.86 12.19 452.86 12.39ZM455.76 8.33C455.76 8.30 455.78 8.23 455.83 8.13L457.20 4.77C457.24 4.66 457.27 4.61 457.30 4.61C457.31 4.61 457.32 4.63 457.37 4.77L458.53 8.18C458.56 8.25 458.57 8.29 458.57 8.32C458.57 8.36 458.54 8.37 458.44 8.37L455.94 8.37C455.76 8.37 455.76 8.34 455.76 8.33ZM469.77 3.51C469.77 3.72 469.84 3.79 470.04 3.79L470.85 3.77C470.95 3.77 470.99 6.61 470.99 8.55L470.99 10.42C470.99 11.30 470.97 12.18 470.93 12.18L470.33 12.18C470.11 12.18 470.04 12.19 470.04 12.39C470.04 12.63 470.08 12.68 470.27 12.68C470.40 12.68 471.23 12.64 471.65 12.64C472.07 12.64 472.84 12.68 473.16 12.68C473.33 12.68 473.35 12.61 473.35 12.40C473.35 12.24 473.33 12.18 473.16 12.18L472.35 12.18C472.28 12.18 472.19 9.18 472.19 8.37C472.19 8.30 472.19 8.26 472.30 8.26C472.70 8.26 473.30 8.27 473.59 8.27C475.83 8.32 475.97 10.00 475.97 11.68L475.97 12.49C475.97 12.61 476.03 12.64 476.13 12.64C476.13 12.64 477.57 12.68 478.04 12.68C478.21 12.68 478.27 12.64 478.27 12.53C478.27 12.24 478.21 12.18 478.06 12.18L477.41 12.18C477.32 12.18 477.29 12.14 477.26 11.31C477.18 8.99 475.80 8.34 474.89 8.05C474.75 8.01 474.78 8.01 474.89 7.95C475.48 7.69 476.80 6.94 476.80 5.63C476.80 3.63 475.10 3.21 473.70 3.21C473.38 3.21 472.09 3.29 471.67 3.29C471.25 3.29 470.27 3.26 470.05 3.26C469.87 3.26 469.77 3.28 469.77 3.51ZM472.19 7.80L472.19 4.40C472.19 4.05 472.22 3.68 472.26 3.68C472.47 3.65 472.75 3.65 472.98 3.65C474.28 3.65 475.52 4.47 475.52 5.82C475.52 6.99 474.98 7.57 474.32 7.88C474.28 7.90 474.24 7.90 474.17 7.90C473.69 7.88 472.98 7.88 472.37 7.87C472.21 7.87 472.19 7.85 472.19 7.80ZM485.74 12.39C485.74 12.63 485.77 12.68 485.97 12.68C486.29 12.68 487.26 12.64 487.68 12.64C488.10 12.64 492.60 12.68 492.93 12.68C493.05 12.68 493.21 12.66 493.21 12.49C493.21 12.07 493.25 11.23 493.25 10.53C493.25 10.39 493.09 10.39 492.97 10.39C492.86 10.39 492.73 10.39 492.73 10.51C492.72 11.06 492.72 11.41 492.69 11.76C492.66 12.01 492.66 12.04 492.56 12.04C492.41 12.04 489.78 12.08 488.28 12.08C488.21 12.08 488.17 10.11 488.12 8.26C488.12 8.06 488.17 8.09 488.31 8.09L490.59 8.09C491.29 8.09 491.32 8.20 491.32 8.30L491.32 9.00C491.32 9.14 491.50 9.14 491.61 9.14C491.71 9.14 491.83 9.13 491.83 9.02C491.83 8.83 491.81 8.33 491.81 7.83C491.81 7.32 491.83 6.83 491.83 6.71C491.83 6.59 491.69 6.58 491.60 6.58C491.48 6.58 491.32 6.59 491.32 6.72L491.32 7.45C491.32 7.62 490.87 7.63 490.59 7.63L488.25 7.63C488.14 7.63 488.12 7.63 488.12 7.45C488.11 6.75 488.10 6.06 488.10 5.46C488.10 5.12 488.10 3.71 488.18 3.71C489.41 3.71 491.92 3.75 491.92 3.81C491.92 3.99 491.88 4.83 491.88 4.89C491.88 5.04 491.95 5.10 492.13 5.10C492.32 5.10 492.39 5.08 492.39 4.94C492.39 3.85 492.45 3.36 492.45 3.09C492.45 2.91 492.37 2.90 492.17 2.90C491.97 2.90 491.97 2.95 491.95 3.11C491.93 3.25 492.00 3.25 491.09 3.25C490.48 3.25 488.33 3.29 487.56 3.29C487.07 3.29 486.14 3.25 486.04 3.25C485.91 3.25 485.86 3.30 485.86 3.49C485.86 3.72 485.93 3.74 486.09 3.74L486.75 3.74C486.81 3.74 486.88 4.79 486.88 5.71C486.88 5.80 486.93 8.27 486.93 9.83L486.93 11.17C486.93 11.84 486.91 12.18 486.88 12.18L486.02 12.18C485.80 12.18 485.74 12.21 485.74 12.39Z"></path></g></svg>