<svg data-v-fde0c5aa="" xmlns="http://www.w3.org/2000/svg" viewBox="0 0 300 300" class="font"><!----><defs data-v-fde0c5aa=""><!----></defs><rect data-v-fde0c5aa="" fill="#D2EAF5" x="0" y="0" width="300px" height="300px" class="logo-background-square"></rect><defs data-v-fde0c5aa=""><linearGradient data-v-fde0c5aa="" gradientTransform="rotate(25)" id="68bb66a7-0df2-4866-9ee0-ac9f2c21456e" x1="0%" y1="0%" x2="100%" y2="0%"><stop data-v-fde0c5aa="" offset="0%" stop-color="#000A68" stop-opacity="1"></stop><stop data-v-fde0c5aa="" offset="100%" stop-color="#00C4EE" stop-opacity="1"></stop></linearGradient></defs><g data-v-fde0c5aa="" id="653134d4-4053-422d-85e3-bb3360d106a0" fill="url(#68bb66a7-0df2-4866-9ee0-ac9f2c21456e)" transform="matrix(8.276899948513067,0,0,8.276899948513067,34.28893856191799,81.21896190146443)"><path d="M5.01 13.01L5.01 13.01Q3.82 13.01 2.83 12.44L2.83 12.44L2.83 12.44Q1.85 11.87 1.27 10.82L1.27 10.82L1.27 10.82Q0.69 9.77 0.69 8.37L0.69 8.37L0.69 8.37Q0.69 6.96 1.25 5.88L1.25 5.88L1.25 5.88Q1.81 4.80 2.84 4.21L2.84 4.21L2.84 4.21Q3.88 3.61 5.26 3.61L5.26 3.61L5.26 3.61Q6.47 3.61 7.41 4.10L7.41 4.10L7.41 4.10Q8.34 4.58 8.34 5.59L8.34 5.59L8.34 5.59Q8.36 6.22 7.97 6.66L7.97 6.66L7.97 6.66Q7.57 7.10 6.92 7.10L6.92 7.10L6.92 7.10Q6.66 7.10 6.49 7.01L6.49 7.01L6.49 7.01Q6.31 6.92 6.23 6.79L6.23 6.79L6.23 6.79Q6.15 6.66 6.16 6.59L6.16 6.59L6.16 6.59Q6.16 6.57 6.36 6.44L6.36 6.44L6.36 6.44Q6.55 6.31 6.71 6.09L6.71 6.09L6.71 6.09Q6.86 5.87 6.86 5.54L6.86 5.54L6.86 5.54Q6.86 4.91 6.43 4.54L6.43 4.54L6.43 4.54Q6.01 4.17 5.25 4.17L5.25 4.17L5.25 4.17Q4.40 4.17 3.73 4.66L3.73 4.66L3.73 4.66Q3.07 5.14 2.69 6.07L2.69 6.07L2.69 6.07Q2.32 7.00 2.32 8.29L2.32 8.29L2.32 8.29Q2.32 9.41 2.72 10.33L2.72 10.33L2.72 10.33Q3.12 11.24 3.85 11.78L3.85 11.78L3.85 11.78Q4.58 12.32 5.52 12.32L5.52 12.32L5.52 12.32Q6.27 12.32 6.81 12.01L6.81 12.01L6.81 12.01Q7.35 11.69 7.78 10.99L7.78 10.99L7.78 10.99Q7.85 10.86 7.98 10.86L7.98 10.86L7.98 10.86Q8.09 10.86 8.23 10.95L8.23 10.95L8.23 10.95Q8.46 11.10 8.46 11.26L8.46 11.26L8.46 11.26Q8.46 11.34 8.40 11.40L8.40 11.40L8.40 11.40Q7.87 12.07 7.40 12.41L7.40 12.41L7.40 12.41Q6.93 12.75 6.38 12.88L6.38 12.88L6.38 12.88Q5.84 13.01 5.01 13.01L5.01 13.01ZM9.79 12.77L9.79 12.77Q9.66 12.77 9.60 12.68L9.60 12.68L9.60 12.68Q9.53 12.59 9.53 12.46L9.53 12.46L9.53 12.46Q9.55 12.25 9.62 12.21L9.62 12.21L9.62 12.21Q9.69 12.17 9.88 12.17L9.88 12.17L9.88 12.17Q10.29 12.17 10.49 12.02L10.49 12.02L10.49 12.02Q10.68 11.87 10.73 11.66L10.73 11.66L10.73 11.66Q10.78 11.44 10.79 11.09L10.79 11.09L10.79 5.53L10.79 5.53Q10.78 5.18 10.73 4.96L10.73 4.96L10.73 4.96Q10.68 4.75 10.49 4.60L10.49 4.60L10.49 4.60Q10.29 4.45 9.88 4.45L9.88 4.45L9.80 4.45L9.80 4.45Q9.66 4.45 9.60 4.40L9.60 4.40L9.60 4.40Q9.55 4.35 9.53 4.16L9.53 4.16L9.53 4.16Q9.53 4.03 9.60 3.94L9.60 3.94L9.60 3.94Q9.66 3.85 9.79 3.85L9.79 3.85L9.79 3.85Q10.70 3.89 11.44 3.89L11.44 3.89L13.41 3.89L13.41 3.89Q14.18 3.89 14.66 4.00L14.66 4.00L14.66 4.00Q15.13 4.12 15.51 4.35L15.51 4.35L15.51 4.35Q15.88 4.59 16.09 5.01L16.09 5.01L16.09 5.01Q16.30 5.42 16.30 5.91L16.30 5.91L16.30 5.91Q16.30 6.78 15.73 7.29L15.73 7.29L15.73 7.29Q15.16 7.80 14.41 7.98L14.41 7.98L14.41 8.02L14.41 8.02Q15.13 8.02 15.73 8.31L15.73 8.31L15.73 8.31Q16.32 8.60 16.65 9.08L16.65 9.08L16.65 9.08Q16.98 9.56 16.98 10.12L16.98 10.12L16.98 10.12Q16.98 11.07 16.40 11.66L16.40 11.66L16.40 11.66Q15.82 12.25 14.95 12.50L14.95 12.50L14.95 12.50Q14.07 12.74 13.13 12.74L13.13 12.74L11.45 12.73L11.45 12.73Q10.70 12.73 9.79 12.77L9.79 12.77ZM12.18 7.74L12.77 7.74L12.77 7.74Q13.33 7.74 13.74 7.66L13.74 7.66L13.74 7.66Q14.15 7.57 14.48 7.21L14.48 7.21L14.48 7.21Q14.80 6.85 14.80 6.08L14.80 6.08L14.80 6.08Q14.80 4.41 13.16 4.41L13.16 4.41L12.18 4.41L12.18 7.74ZM13.19 12.18L13.19 12.18Q14.22 12.17 14.85 11.67L14.85 11.67L14.85 11.67Q15.47 11.17 15.47 10.04L15.47 10.04L15.47 10.04Q15.40 9.28 14.76 8.79L14.76 8.79L14.76 8.79Q14.13 8.30 12.75 8.30L12.75 8.30L12.18 8.30L12.18 11.09L12.18 11.09Q12.18 11.56 12.27 11.80L12.27 11.80L12.27 11.80Q12.36 12.03 12.56 12.10L12.56 12.10L12.56 12.10Q12.77 12.18 13.19 12.18L13.19 12.18ZM22.76 13.01L22.76 13.01Q21.43 13.01 20.42 12.37L20.42 12.37L20.42 12.37Q19.40 11.73 18.85 10.68L18.85 10.68L18.85 10.68Q18.30 9.63 18.30 8.43L18.30 8.43L18.30 8.43Q18.30 6.96 18.96 5.87L18.96 5.87L18.96 5.87Q19.63 4.77 20.66 4.19L20.66 4.19L20.66 4.19Q21.70 3.61 22.76 3.61L22.76 3.61L22.76 3.61Q24.11 3.61 25.14 4.25L25.14 4.25L25.14 4.25Q26.17 4.89 26.72 5.93L26.72 5.93L26.72 5.93Q27.27 6.97 27.27 8.18L27.27 8.18L27.27 8.18Q27.27 9.65 26.60 10.75L26.60 10.75L26.60 10.75Q25.93 11.84 24.88 12.43L24.88 12.43L24.88 12.43Q23.83 13.01 22.76 13.01L22.76 13.01ZM22.75 12.39L22.75 12.39Q23.70 12.39 24.34 11.82L24.34 11.82L24.34 11.82Q24.98 11.26 25.29 10.30L25.29 10.30L25.29 10.30Q25.61 9.34 25.61 8.18L25.61 8.18L25.61 8.18Q25.61 7.10 25.28 6.20L25.28 6.20L25.28 6.20Q24.96 5.29 24.32 4.75L24.32 4.75L24.32 4.75Q23.67 4.21 22.75 4.21L22.75 4.21L22.75 4.21Q21.35 4.21 20.64 5.40L20.64 5.40L20.64 5.40Q19.94 6.58 19.94 8.39L19.94 8.39L19.94 8.39Q19.94 9.48 20.25 10.39L20.25 10.39L20.25 10.39Q20.57 11.30 21.20 11.84L21.20 11.84L21.20 11.84Q21.83 12.39 22.75 12.39L22.75 12.39Z"></path></g><!----><!----></svg>